<?xml version="1.0" encoding="UTF-8"?><svg xmlns="http://www.w3.org/2000/svg" xmlns:xlink="http://www.w3.org/1999/xlink" stroke-dasharray="none" shape-rendering="auto" font-family="'Dialog'" width="1051" text-rendering="auto" fill-opacity="1" contentScriptType="text/ecmascript" color-interpolation="auto" color-rendering="auto" preserveAspectRatio="xMidYMid meet" font-size="12" fill="black" stroke="black" image-rendering="auto" stroke-miterlimit="10" zoomAndPan="magnify" version="1.0" stroke-linecap="square" stroke-linejoin="miter" contentStyleType="text/css" font-style="normal" height="616" stroke-width="1" stroke-dashoffset="0" font-weight="normal" stroke-opacity="1">
    <!--Generated by the Batik Graphics2D SVG Generator-->
    <defs id="genericDefs"/>
    <g>
        <defs id="defs1">
            <clipPath clipPathUnits="userSpaceOnUse" id="clipPath1">
                <path d="M37 22 L1014 22 L1014 594 L37 594 L37 22 Z"/>
            </clipPath>
            <clipPath clipPathUnits="userSpaceOnUse" id="clipPath2">
                <path d="M-1 -1 L1052 -1 L1052 617 L-1 617 L-1 -1 Z"/>
            </clipPath>
        </defs>
        <g fill="white" text-rendering="geometricPrecision" stroke-linejoin="round" stroke="white" stroke-width="0" stroke-miterlimit="0">
            <rect x="38" y="23" clip-path="url(#clipPath1)" width="975" height="570" stroke="none"/>
        </g>
        <g fill="rgb(204,204,204)" text-rendering="geometricPrecision" stroke-dasharray="3,3" stroke-linecap="butt" stroke="rgb(204,204,204)">
            <line clip-path="url(#clipPath1)" fill="none" x1="38" x2="1013" y1="593" y2="593"/>
            <line clip-path="url(#clipPath1)" fill="none" x1="38" x2="1013" y1="489" y2="489"/>
            <line clip-path="url(#clipPath1)" fill="none" x1="38" x2="1013" y1="385" y2="385"/>
            <line clip-path="url(#clipPath1)" fill="none" x1="38" x2="1013" y1="281" y2="281"/>
            <line clip-path="url(#clipPath1)" fill="none" x1="38" x2="1013" y1="177" y2="177"/>
            <line clip-path="url(#clipPath1)" fill="none" x1="38" x2="1013" y1="73" y2="73"/>
            <rect x="142" y="165" clip-path="url(#clipPath1)" fill="rgb(0,0,139)" width="78" height="428" stroke="none"/>
            <rect x="142" y="165" clip-path="url(#clipPath1)" fill="none" width="78" stroke-dasharray="none" height="428" stroke="black"/>
            <line clip-path="url(#clipPath1)" fill="none" x1="220" x2="298" y1="593" y2="593" stroke-dasharray="none" stroke="black"/>
            <line clip-path="url(#clipPath1)" fill="none" x1="298" x2="376" y1="593" y2="593" stroke-dasharray="none" stroke="black"/>
            <rect x="376" y="554" clip-path="url(#clipPath1)" fill="rgb(0,0,139)" width="78" stroke-dasharray="none" height="39" stroke="none"/>
            <rect x="376" y="554" clip-path="url(#clipPath1)" fill="none" width="78" stroke-dasharray="none" height="39" stroke="black"/>
            <line clip-path="url(#clipPath1)" fill="none" x1="454" x2="533" y1="593" y2="593" stroke-dasharray="none" stroke="black"/>
            <line clip-path="url(#clipPath1)" fill="none" x1="533" x2="611" y1="593" y2="593" stroke-dasharray="none" stroke="black"/>
            <line clip-path="url(#clipPath1)" fill="none" x1="611" x2="689" y1="593" y2="593" stroke-dasharray="none" stroke="black"/>
            <rect x="689" y="589" clip-path="url(#clipPath1)" fill="rgb(0,0,139)" width="78" stroke-dasharray="none" height="4" stroke="none"/>
            <rect x="689" y="589" clip-path="url(#clipPath1)" fill="none" width="78" stroke-dasharray="none" height="4" stroke="black"/>
            <line clip-path="url(#clipPath1)" fill="none" x1="767" x2="845" y1="593" y2="593" stroke-dasharray="none" stroke="black"/>
            <line clip-path="url(#clipPath1)" fill="none" x1="845" x2="924" y1="593" y2="593" stroke-dasharray="none" stroke="black"/>
            <rect x="924" y="592" clip-path="url(#clipPath1)" fill="rgb(0,0,139)" width="78" stroke-dasharray="none" height="1" stroke="none"/>
            <rect x="924" y="592" clip-path="url(#clipPath1)" fill="none" width="78" stroke-dasharray="none" height="1" stroke="black"/>
            <rect x="38" y="23" clip-path="url(#clipPath2)" fill="none" width="975" stroke-dasharray="none" height="570" stroke="black"/>
        </g>
        <g text-rendering="geometricPrecision" font-size="13" stroke-linecap="butt">
            <line clip-path="url(#clipPath2)" fill="none" x1="38" x2="1013" y1="21" y2="21"/>
            <line clip-path="url(#clipPath2)" fill="none" x1="38" x2="1013" y1="595" y2="595"/>
            <line clip-path="url(#clipPath2)" fill="none" x1="38" x2="38" y1="17" y2="21"/>
            <line clip-path="url(#clipPath2)" fill="none" x1="38" x2="38" y1="599" y2="595"/>
            <text x="32" font-size="10" y="14" clip-path="url(#clipPath2)" stroke="none" xml:space="preserve">0.0</text>
            <text x="32" font-size="10" y="611" clip-path="url(#clipPath2)" stroke="none" xml:space="preserve">0.0</text>
            <line clip-path="url(#clipPath2)" fill="none" x1="51" x2="51" y1="19" y2="21"/>
            <line clip-path="url(#clipPath2)" fill="none" x1="51" x2="51" y1="597" y2="595"/>
            <line clip-path="url(#clipPath2)" fill="none" x1="64" x2="64" y1="19" y2="21"/>
            <line clip-path="url(#clipPath2)" fill="none" x1="64" x2="64" y1="597" y2="595"/>
            <line clip-path="url(#clipPath2)" fill="none" x1="77" x2="77" y1="19" y2="21"/>
            <line clip-path="url(#clipPath2)" fill="none" x1="77" x2="77" y1="597" y2="595"/>
            <line clip-path="url(#clipPath2)" fill="none" x1="90" x2="90" y1="19" y2="21"/>
            <line clip-path="url(#clipPath2)" fill="none" x1="90" x2="90" y1="597" y2="595"/>
            <line clip-path="url(#clipPath2)" fill="none" x1="103" x2="103" y1="17" y2="21"/>
            <line clip-path="url(#clipPath2)" fill="none" x1="103" x2="103" y1="599" y2="595"/>
            <text x="94" font-size="10" y="14" clip-path="url(#clipPath2)" stroke="none" xml:space="preserve">0.05</text>
            <text x="94" font-size="10" y="611" clip-path="url(#clipPath2)" stroke="none" xml:space="preserve">0.05</text>
            <line clip-path="url(#clipPath2)" fill="none" x1="116" x2="116" y1="19" y2="21"/>
            <line clip-path="url(#clipPath2)" fill="none" x1="116" x2="116" y1="597" y2="595"/>
            <line clip-path="url(#clipPath2)" fill="none" x1="129" x2="129" y1="19" y2="21"/>
            <line clip-path="url(#clipPath2)" fill="none" x1="129" x2="129" y1="597" y2="595"/>
            <line clip-path="url(#clipPath2)" fill="none" x1="142" x2="142" y1="19" y2="21"/>
            <line clip-path="url(#clipPath2)" fill="none" x1="142" x2="142" y1="597" y2="595"/>
            <line clip-path="url(#clipPath2)" fill="none" x1="155" x2="155" y1="19" y2="21"/>
            <line clip-path="url(#clipPath2)" fill="none" x1="155" x2="155" y1="597" y2="595"/>
            <line clip-path="url(#clipPath2)" fill="none" x1="168" x2="168" y1="17" y2="21"/>
            <line clip-path="url(#clipPath2)" fill="none" x1="168" x2="168" y1="599" y2="595"/>
            <text x="159" font-size="10" y="14" clip-path="url(#clipPath2)" stroke="none" xml:space="preserve">0.10</text>
            <text x="159" font-size="10" y="611" clip-path="url(#clipPath2)" stroke="none" xml:space="preserve">0.10</text>
            <line clip-path="url(#clipPath2)" fill="none" x1="181" x2="181" y1="19" y2="21"/>
            <line clip-path="url(#clipPath2)" fill="none" x1="181" x2="181" y1="597" y2="595"/>
            <line clip-path="url(#clipPath2)" fill="none" x1="194" x2="194" y1="19" y2="21"/>
            <line clip-path="url(#clipPath2)" fill="none" x1="194" x2="194" y1="597" y2="595"/>
            <line clip-path="url(#clipPath2)" fill="none" x1="207" x2="207" y1="19" y2="21"/>
            <line clip-path="url(#clipPath2)" fill="none" x1="207" x2="207" y1="597" y2="595"/>
            <line clip-path="url(#clipPath2)" fill="none" x1="220" x2="220" y1="19" y2="21"/>
            <line clip-path="url(#clipPath2)" fill="none" x1="220" x2="220" y1="597" y2="595"/>
            <line clip-path="url(#clipPath2)" fill="none" x1="233" x2="233" y1="17" y2="21"/>
            <line clip-path="url(#clipPath2)" fill="none" x1="233" x2="233" y1="599" y2="595"/>
            <text x="224" font-size="10" y="14" clip-path="url(#clipPath2)" stroke="none" xml:space="preserve">0.15</text>
            <text x="224" font-size="10" y="611" clip-path="url(#clipPath2)" stroke="none" xml:space="preserve">0.15</text>
            <line clip-path="url(#clipPath2)" fill="none" x1="246" x2="246" y1="19" y2="21"/>
            <line clip-path="url(#clipPath2)" fill="none" x1="246" x2="246" y1="597" y2="595"/>
            <line clip-path="url(#clipPath2)" fill="none" x1="259" x2="259" y1="19" y2="21"/>
            <line clip-path="url(#clipPath2)" fill="none" x1="259" x2="259" y1="597" y2="595"/>
            <line clip-path="url(#clipPath2)" fill="none" x1="272" x2="272" y1="19" y2="21"/>
            <line clip-path="url(#clipPath2)" fill="none" x1="272" x2="272" y1="597" y2="595"/>
            <line clip-path="url(#clipPath2)" fill="none" x1="285" x2="285" y1="19" y2="21"/>
            <line clip-path="url(#clipPath2)" fill="none" x1="285" x2="285" y1="597" y2="595"/>
            <line clip-path="url(#clipPath2)" fill="none" x1="298" x2="298" y1="17" y2="21"/>
            <line clip-path="url(#clipPath2)" fill="none" x1="298" x2="298" y1="599" y2="595"/>
            <text x="289" font-size="10" y="14" clip-path="url(#clipPath2)" stroke="none" xml:space="preserve">0.20</text>
            <text x="289" font-size="10" y="611" clip-path="url(#clipPath2)" stroke="none" xml:space="preserve">0.20</text>
            <line clip-path="url(#clipPath2)" fill="none" x1="311" x2="311" y1="19" y2="21"/>
            <line clip-path="url(#clipPath2)" fill="none" x1="311" x2="311" y1="597" y2="595"/>
            <line clip-path="url(#clipPath2)" fill="none" x1="324" x2="324" y1="19" y2="21"/>
            <line clip-path="url(#clipPath2)" fill="none" x1="324" x2="324" y1="597" y2="595"/>
            <line clip-path="url(#clipPath2)" fill="none" x1="337" x2="337" y1="19" y2="21"/>
            <line clip-path="url(#clipPath2)" fill="none" x1="337" x2="337" y1="597" y2="595"/>
            <line clip-path="url(#clipPath2)" fill="none" x1="350" x2="350" y1="19" y2="21"/>
            <line clip-path="url(#clipPath2)" fill="none" x1="350" x2="350" y1="597" y2="595"/>
            <line clip-path="url(#clipPath2)" fill="none" x1="363" x2="363" y1="17" y2="21"/>
            <line clip-path="url(#clipPath2)" fill="none" x1="363" x2="363" y1="599" y2="595"/>
            <text x="354" font-size="10" y="14" clip-path="url(#clipPath2)" stroke="none" xml:space="preserve">0.25</text>
            <text x="354" font-size="10" y="611" clip-path="url(#clipPath2)" stroke="none" xml:space="preserve">0.25</text>
            <line clip-path="url(#clipPath2)" fill="none" x1="376" x2="376" y1="19" y2="21"/>
            <line clip-path="url(#clipPath2)" fill="none" x1="376" x2="376" y1="597" y2="595"/>
            <line clip-path="url(#clipPath2)" fill="none" x1="389" x2="389" y1="19" y2="21"/>
            <line clip-path="url(#clipPath2)" fill="none" x1="389" x2="389" y1="597" y2="595"/>
            <line clip-path="url(#clipPath2)" fill="none" x1="402" x2="402" y1="19" y2="21"/>
            <line clip-path="url(#clipPath2)" fill="none" x1="402" x2="402" y1="597" y2="595"/>
            <line clip-path="url(#clipPath2)" fill="none" x1="415" x2="415" y1="19" y2="21"/>
            <line clip-path="url(#clipPath2)" fill="none" x1="415" x2="415" y1="597" y2="595"/>
            <line clip-path="url(#clipPath2)" fill="none" x1="428" x2="428" y1="17" y2="21"/>
            <line clip-path="url(#clipPath2)" fill="none" x1="428" x2="428" y1="599" y2="595"/>
            <text x="419" font-size="10" y="14" clip-path="url(#clipPath2)" stroke="none" xml:space="preserve">0.30</text>
            <text x="419" font-size="10" y="611" clip-path="url(#clipPath2)" stroke="none" xml:space="preserve">0.30</text>
            <line clip-path="url(#clipPath2)" fill="none" x1="441" x2="441" y1="19" y2="21"/>
            <line clip-path="url(#clipPath2)" fill="none" x1="441" x2="441" y1="597" y2="595"/>
            <line clip-path="url(#clipPath2)" fill="none" x1="454" x2="454" y1="19" y2="21"/>
            <line clip-path="url(#clipPath2)" fill="none" x1="454" x2="454" y1="597" y2="595"/>
            <line clip-path="url(#clipPath2)" fill="none" x1="468" x2="468" y1="19" y2="21"/>
            <line clip-path="url(#clipPath2)" fill="none" x1="468" x2="468" y1="597" y2="595"/>
            <line clip-path="url(#clipPath2)" fill="none" x1="481" x2="481" y1="19" y2="21"/>
            <line clip-path="url(#clipPath2)" fill="none" x1="481" x2="481" y1="597" y2="595"/>
            <line clip-path="url(#clipPath2)" fill="none" x1="494" x2="494" y1="17" y2="21"/>
            <line clip-path="url(#clipPath2)" fill="none" x1="494" x2="494" y1="599" y2="595"/>
            <text x="485" font-size="10" y="14" clip-path="url(#clipPath2)" stroke="none" xml:space="preserve">0.35</text>
            <text x="485" font-size="10" y="611" clip-path="url(#clipPath2)" stroke="none" xml:space="preserve">0.35</text>
            <line clip-path="url(#clipPath2)" fill="none" x1="507" x2="507" y1="19" y2="21"/>
            <line clip-path="url(#clipPath2)" fill="none" x1="507" x2="507" y1="597" y2="595"/>
            <line clip-path="url(#clipPath2)" fill="none" x1="520" x2="520" y1="19" y2="21"/>
            <line clip-path="url(#clipPath2)" fill="none" x1="520" x2="520" y1="597" y2="595"/>
            <line clip-path="url(#clipPath2)" fill="none" x1="533" x2="533" y1="19" y2="21"/>
            <line clip-path="url(#clipPath2)" fill="none" x1="533" x2="533" y1="597" y2="595"/>
            <line clip-path="url(#clipPath2)" fill="none" x1="546" x2="546" y1="19" y2="21"/>
            <line clip-path="url(#clipPath2)" fill="none" x1="546" x2="546" y1="597" y2="595"/>
            <line clip-path="url(#clipPath2)" fill="none" x1="559" x2="559" y1="17" y2="21"/>
            <line clip-path="url(#clipPath2)" fill="none" x1="559" x2="559" y1="599" y2="595"/>
            <text x="550" font-size="10" y="14" clip-path="url(#clipPath2)" stroke="none" xml:space="preserve">0.40</text>
            <text x="550" font-size="10" y="611" clip-path="url(#clipPath2)" stroke="none" xml:space="preserve">0.40</text>
            <line clip-path="url(#clipPath2)" fill="none" x1="572" x2="572" y1="19" y2="21"/>
            <line clip-path="url(#clipPath2)" fill="none" x1="572" x2="572" y1="597" y2="595"/>
            <line clip-path="url(#clipPath2)" fill="none" x1="585" x2="585" y1="19" y2="21"/>
            <line clip-path="url(#clipPath2)" fill="none" x1="585" x2="585" y1="597" y2="595"/>
            <line clip-path="url(#clipPath2)" fill="none" x1="598" x2="598" y1="19" y2="21"/>
            <line clip-path="url(#clipPath2)" fill="none" x1="598" x2="598" y1="597" y2="595"/>
            <line clip-path="url(#clipPath2)" fill="none" x1="611" x2="611" y1="19" y2="21"/>
            <line clip-path="url(#clipPath2)" fill="none" x1="611" x2="611" y1="597" y2="595"/>
            <line clip-path="url(#clipPath2)" fill="none" x1="624" x2="624" y1="17" y2="21"/>
            <line clip-path="url(#clipPath2)" fill="none" x1="624" x2="624" y1="599" y2="595"/>
            <text x="615" font-size="10" y="14" clip-path="url(#clipPath2)" stroke="none" xml:space="preserve">0.45</text>
            <text x="615" font-size="10" y="611" clip-path="url(#clipPath2)" stroke="none" xml:space="preserve">0.45</text>
            <line clip-path="url(#clipPath2)" fill="none" x1="637" x2="637" y1="19" y2="21"/>
            <line clip-path="url(#clipPath2)" fill="none" x1="637" x2="637" y1="597" y2="595"/>
            <line clip-path="url(#clipPath2)" fill="none" x1="650" x2="650" y1="19" y2="21"/>
            <line clip-path="url(#clipPath2)" fill="none" x1="650" x2="650" y1="597" y2="595"/>
            <line clip-path="url(#clipPath2)" fill="none" x1="663" x2="663" y1="19" y2="21"/>
            <line clip-path="url(#clipPath2)" fill="none" x1="663" x2="663" y1="597" y2="595"/>
            <line clip-path="url(#clipPath2)" fill="none" x1="676" x2="676" y1="19" y2="21"/>
            <line clip-path="url(#clipPath2)" fill="none" x1="676" x2="676" y1="597" y2="595"/>
            <line clip-path="url(#clipPath2)" fill="none" x1="689" x2="689" y1="17" y2="21"/>
            <line clip-path="url(#clipPath2)" fill="none" x1="689" x2="689" y1="599" y2="595"/>
            <text x="680" font-size="10" y="14" clip-path="url(#clipPath2)" stroke="none" xml:space="preserve">0.50</text>
            <text x="680" font-size="10" y="611" clip-path="url(#clipPath2)" stroke="none" xml:space="preserve">0.50</text>
            <line clip-path="url(#clipPath2)" fill="none" x1="702" x2="702" y1="19" y2="21"/>
            <line clip-path="url(#clipPath2)" fill="none" x1="702" x2="702" y1="597" y2="595"/>
            <line clip-path="url(#clipPath2)" fill="none" x1="715" x2="715" y1="19" y2="21"/>
            <line clip-path="url(#clipPath2)" fill="none" x1="715" x2="715" y1="597" y2="595"/>
            <line clip-path="url(#clipPath2)" fill="none" x1="728" x2="728" y1="19" y2="21"/>
            <line clip-path="url(#clipPath2)" fill="none" x1="728" x2="728" y1="597" y2="595"/>
            <line clip-path="url(#clipPath2)" fill="none" x1="741" x2="741" y1="19" y2="21"/>
            <line clip-path="url(#clipPath2)" fill="none" x1="741" x2="741" y1="597" y2="595"/>
            <line clip-path="url(#clipPath2)" fill="none" x1="754" x2="754" y1="17" y2="21"/>
            <line clip-path="url(#clipPath2)" fill="none" x1="754" x2="754" y1="599" y2="595"/>
            <text x="745" font-size="10" y="14" clip-path="url(#clipPath2)" stroke="none" xml:space="preserve">0.55</text>
            <text x="745" font-size="10" y="611" clip-path="url(#clipPath2)" stroke="none" xml:space="preserve">0.55</text>
            <line clip-path="url(#clipPath2)" fill="none" x1="767" x2="767" y1="19" y2="21"/>
            <line clip-path="url(#clipPath2)" fill="none" x1="767" x2="767" y1="597" y2="595"/>
            <line clip-path="url(#clipPath2)" fill="none" x1="780" x2="780" y1="19" y2="21"/>
            <line clip-path="url(#clipPath2)" fill="none" x1="780" x2="780" y1="597" y2="595"/>
            <line clip-path="url(#clipPath2)" fill="none" x1="793" x2="793" y1="19" y2="21"/>
            <line clip-path="url(#clipPath2)" fill="none" x1="793" x2="793" y1="597" y2="595"/>
            <line clip-path="url(#clipPath2)" fill="none" x1="806" x2="806" y1="19" y2="21"/>
            <line clip-path="url(#clipPath2)" fill="none" x1="806" x2="806" y1="597" y2="595"/>
            <line clip-path="url(#clipPath2)" fill="none" x1="819" x2="819" y1="17" y2="21"/>
            <line clip-path="url(#clipPath2)" fill="none" x1="819" x2="819" y1="599" y2="595"/>
            <text x="810" font-size="10" y="14" clip-path="url(#clipPath2)" stroke="none" xml:space="preserve">0.60</text>
            <text x="810" font-size="10" y="611" clip-path="url(#clipPath2)" stroke="none" xml:space="preserve">0.60</text>
            <line clip-path="url(#clipPath2)" fill="none" x1="832" x2="832" y1="19" y2="21"/>
            <line clip-path="url(#clipPath2)" fill="none" x1="832" x2="832" y1="597" y2="595"/>
            <line clip-path="url(#clipPath2)" fill="none" x1="845" x2="845" y1="19" y2="21"/>
            <line clip-path="url(#clipPath2)" fill="none" x1="845" x2="845" y1="597" y2="595"/>
            <line clip-path="url(#clipPath2)" fill="none" x1="858" x2="858" y1="19" y2="21"/>
            <line clip-path="url(#clipPath2)" fill="none" x1="858" x2="858" y1="597" y2="595"/>
            <line clip-path="url(#clipPath2)" fill="none" x1="871" x2="871" y1="19" y2="21"/>
            <line clip-path="url(#clipPath2)" fill="none" x1="871" x2="871" y1="597" y2="595"/>
            <line clip-path="url(#clipPath2)" fill="none" x1="884" x2="884" y1="17" y2="21"/>
            <line clip-path="url(#clipPath2)" fill="none" x1="884" x2="884" y1="599" y2="595"/>
            <text x="875" font-size="10" y="14" clip-path="url(#clipPath2)" stroke="none" xml:space="preserve">0.65</text>
            <text x="875" font-size="10" y="611" clip-path="url(#clipPath2)" stroke="none" xml:space="preserve">0.65</text>
            <line clip-path="url(#clipPath2)" fill="none" x1="898" x2="898" y1="19" y2="21"/>
            <line clip-path="url(#clipPath2)" fill="none" x1="898" x2="898" y1="597" y2="595"/>
            <line clip-path="url(#clipPath2)" fill="none" x1="911" x2="911" y1="19" y2="21"/>
            <line clip-path="url(#clipPath2)" fill="none" x1="911" x2="911" y1="597" y2="595"/>
            <line clip-path="url(#clipPath2)" fill="none" x1="924" x2="924" y1="19" y2="21"/>
            <line clip-path="url(#clipPath2)" fill="none" x1="924" x2="924" y1="597" y2="595"/>
            <line clip-path="url(#clipPath2)" fill="none" x1="937" x2="937" y1="19" y2="21"/>
            <line clip-path="url(#clipPath2)" fill="none" x1="937" x2="937" y1="597" y2="595"/>
            <line clip-path="url(#clipPath2)" fill="none" x1="950" x2="950" y1="17" y2="21"/>
            <line clip-path="url(#clipPath2)" fill="none" x1="950" x2="950" y1="599" y2="595"/>
            <text x="941" font-size="10" y="14" clip-path="url(#clipPath2)" stroke="none" xml:space="preserve">0.70</text>
            <text x="941" font-size="10" y="611" clip-path="url(#clipPath2)" stroke="none" xml:space="preserve">0.70</text>
            <line clip-path="url(#clipPath2)" fill="none" x1="963" x2="963" y1="19" y2="21"/>
            <line clip-path="url(#clipPath2)" fill="none" x1="963" x2="963" y1="597" y2="595"/>
            <line clip-path="url(#clipPath2)" fill="none" x1="976" x2="976" y1="19" y2="21"/>
            <line clip-path="url(#clipPath2)" fill="none" x1="976" x2="976" y1="597" y2="595"/>
            <line clip-path="url(#clipPath2)" fill="none" x1="989" x2="989" y1="19" y2="21"/>
            <line clip-path="url(#clipPath2)" fill="none" x1="989" x2="989" y1="597" y2="595"/>
            <line clip-path="url(#clipPath2)" fill="none" x1="1002" x2="1002" y1="19" y2="21"/>
            <line clip-path="url(#clipPath2)" fill="none" x1="1002" x2="1002" y1="597" y2="595"/>
            <line clip-path="url(#clipPath2)" fill="none" x1="36" x2="36" y1="23" y2="593"/>
            <line clip-path="url(#clipPath2)" fill="none" x1="1015" x2="1015" y1="23" y2="593"/>
            <line clip-path="url(#clipPath2)" fill="none" x1="32" x2="36" y1="593" y2="593"/>
            <line clip-path="url(#clipPath2)" fill="none" x1="1019" x2="1015" y1="593" y2="593"/>
            <text x="26" font-size="10" y="598" clip-path="url(#clipPath2)" stroke="none" xml:space="preserve">0</text>
            <text x="1022" font-size="10" y="598" clip-path="url(#clipPath2)" stroke="none" xml:space="preserve">0</text>
            <line clip-path="url(#clipPath2)" fill="none" x1="34" x2="36" y1="572" y2="572"/>
            <line clip-path="url(#clipPath2)" fill="none" x1="1017" x2="1015" y1="572" y2="572"/>
            <line clip-path="url(#clipPath2)" fill="none" x1="34" x2="36" y1="551" y2="551"/>
            <line clip-path="url(#clipPath2)" fill="none" x1="1017" x2="1015" y1="551" y2="551"/>
            <line clip-path="url(#clipPath2)" fill="none" x1="34" x2="36" y1="530" y2="530"/>
            <line clip-path="url(#clipPath2)" fill="none" x1="1017" x2="1015" y1="530" y2="530"/>
            <line clip-path="url(#clipPath2)" fill="none" x1="34" x2="36" y1="509" y2="509"/>
            <line clip-path="url(#clipPath2)" fill="none" x1="1017" x2="1015" y1="509" y2="509"/>
            <line clip-path="url(#clipPath2)" fill="none" x1="32" x2="36" y1="489" y2="489"/>
            <line clip-path="url(#clipPath2)" fill="none" x1="1019" x2="1015" y1="489" y2="489"/>
            <text x="16" font-size="10" y="494" clip-path="url(#clipPath2)" stroke="none" xml:space="preserve">500</text>
            <text x="1022" font-size="10" y="494" clip-path="url(#clipPath2)" stroke="none" xml:space="preserve">500</text>
            <line clip-path="url(#clipPath2)" fill="none" x1="34" x2="36" y1="468" y2="468"/>
            <line clip-path="url(#clipPath2)" fill="none" x1="1017" x2="1015" y1="468" y2="468"/>
            <line clip-path="url(#clipPath2)" fill="none" x1="34" x2="36" y1="447" y2="447"/>
            <line clip-path="url(#clipPath2)" fill="none" x1="1017" x2="1015" y1="447" y2="447"/>
            <line clip-path="url(#clipPath2)" fill="none" x1="34" x2="36" y1="426" y2="426"/>
            <line clip-path="url(#clipPath2)" fill="none" x1="1017" x2="1015" y1="426" y2="426"/>
            <line clip-path="url(#clipPath2)" fill="none" x1="34" x2="36" y1="405" y2="405"/>
            <line clip-path="url(#clipPath2)" fill="none" x1="1017" x2="1015" y1="405" y2="405"/>
            <line clip-path="url(#clipPath2)" fill="none" x1="32" x2="36" y1="385" y2="385"/>
            <line clip-path="url(#clipPath2)" fill="none" x1="1019" x2="1015" y1="385" y2="385"/>
            <text x="11" font-size="10" y="390" clip-path="url(#clipPath2)" stroke="none" xml:space="preserve">1000</text>
            <text x="1022" font-size="10" y="390" clip-path="url(#clipPath2)" stroke="none" xml:space="preserve">1000</text>
            <line clip-path="url(#clipPath2)" fill="none" x1="34" x2="36" y1="364" y2="364"/>
            <line clip-path="url(#clipPath2)" fill="none" x1="1017" x2="1015" y1="364" y2="364"/>
            <line clip-path="url(#clipPath2)" fill="none" x1="34" x2="36" y1="343" y2="343"/>
            <line clip-path="url(#clipPath2)" fill="none" x1="1017" x2="1015" y1="343" y2="343"/>
            <line clip-path="url(#clipPath2)" fill="none" x1="34" x2="36" y1="322" y2="322"/>
            <line clip-path="url(#clipPath2)" fill="none" x1="1017" x2="1015" y1="322" y2="322"/>
            <line clip-path="url(#clipPath2)" fill="none" x1="34" x2="36" y1="301" y2="301"/>
            <line clip-path="url(#clipPath2)" fill="none" x1="1017" x2="1015" y1="301" y2="301"/>
            <line clip-path="url(#clipPath2)" fill="none" x1="32" x2="36" y1="281" y2="281"/>
            <line clip-path="url(#clipPath2)" fill="none" x1="1019" x2="1015" y1="281" y2="281"/>
            <text x="11" font-size="10" y="286" clip-path="url(#clipPath2)" stroke="none" xml:space="preserve">1500</text>
            <text x="1022" font-size="10" y="286" clip-path="url(#clipPath2)" stroke="none" xml:space="preserve">1500</text>
            <line clip-path="url(#clipPath2)" fill="none" x1="34" x2="36" y1="260" y2="260"/>
            <line clip-path="url(#clipPath2)" fill="none" x1="1017" x2="1015" y1="260" y2="260"/>
            <line clip-path="url(#clipPath2)" fill="none" x1="34" x2="36" y1="239" y2="239"/>
            <line clip-path="url(#clipPath2)" fill="none" x1="1017" x2="1015" y1="239" y2="239"/>
            <line clip-path="url(#clipPath2)" fill="none" x1="34" x2="36" y1="218" y2="218"/>
            <line clip-path="url(#clipPath2)" fill="none" x1="1017" x2="1015" y1="218" y2="218"/>
            <line clip-path="url(#clipPath2)" fill="none" x1="34" x2="36" y1="197" y2="197"/>
            <line clip-path="url(#clipPath2)" fill="none" x1="1017" x2="1015" y1="197" y2="197"/>
            <line clip-path="url(#clipPath2)" fill="none" x1="32" x2="36" y1="177" y2="177"/>
            <line clip-path="url(#clipPath2)" fill="none" x1="1019" x2="1015" y1="177" y2="177"/>
            <text x="11" font-size="10" y="182" clip-path="url(#clipPath2)" stroke="none" xml:space="preserve">2000</text>
            <text x="1022" font-size="10" y="182" clip-path="url(#clipPath2)" stroke="none" xml:space="preserve">2000</text>
            <line clip-path="url(#clipPath2)" fill="none" x1="34" x2="36" y1="156" y2="156"/>
            <line clip-path="url(#clipPath2)" fill="none" x1="1017" x2="1015" y1="156" y2="156"/>
            <line clip-path="url(#clipPath2)" fill="none" x1="34" x2="36" y1="135" y2="135"/>
            <line clip-path="url(#clipPath2)" fill="none" x1="1017" x2="1015" y1="135" y2="135"/>
            <line clip-path="url(#clipPath2)" fill="none" x1="34" x2="36" y1="114" y2="114"/>
            <line clip-path="url(#clipPath2)" fill="none" x1="1017" x2="1015" y1="114" y2="114"/>
            <line clip-path="url(#clipPath2)" fill="none" x1="34" x2="36" y1="93" y2="93"/>
            <line clip-path="url(#clipPath2)" fill="none" x1="1017" x2="1015" y1="93" y2="93"/>
            <line clip-path="url(#clipPath2)" fill="none" x1="32" x2="36" y1="73" y2="73"/>
            <line clip-path="url(#clipPath2)" fill="none" x1="1019" x2="1015" y1="73" y2="73"/>
            <text x="11" font-size="10" y="78" clip-path="url(#clipPath2)" stroke="none" xml:space="preserve">2500</text>
            <text x="1022" font-size="10" y="78" clip-path="url(#clipPath2)" stroke="none" xml:space="preserve">2500</text>
            <line clip-path="url(#clipPath2)" fill="none" x1="34" x2="36" y1="52" y2="52"/>
            <line clip-path="url(#clipPath2)" fill="none" x1="1017" x2="1015" y1="52" y2="52"/>
            <line clip-path="url(#clipPath2)" fill="none" x1="34" x2="36" y1="31" y2="31"/>
            <line clip-path="url(#clipPath2)" fill="none" x1="1017" x2="1015" y1="31" y2="31"/>
        </g>
    </g>
</svg>
